<svg xmlns="http://www.w3.org/2000/svg" fill="currentColor" viewBox="0 0 20 20"><mask id="a" width="20" height="20" x="0" y="0" maskUnits="userSpaceOnUse" style="mask-type:alpha"><path d="M0 0h20v20H0z"/></mask><g mask="url(#a)"><path d="M12.875 9.25c-.313 0-.578-.11-.797-.328a1.085 1.085 0 0 1-.328-.797c0-.167.059-.358.177-.573a6.348 6.348 0 0 1 .768-1.104l.178-.198.178.198c.119.132.248.295.386.49.14.194.268.399.386.614.118.215.177.406.177.573 0 .313-.11.578-.328.797a1.085 1.085 0 0 1-.797.328Zm3-2.25c-.313 0-.578-.11-.797-.328a1.085 1.085 0 0 1-.328-.797c0-.167.059-.358.177-.573a6.348 6.348 0 0 1 .768-1.104L15.873 4l.178.198a6.102 6.102 0 0 1 .772 1.104c.118.215.177.406.177.573 0 .313-.11.578-.328.797a1.085 1.085 0 0 1-.797.328Zm0 4.5c-.313 0-.578-.11-.797-.328a1.085 1.085 0 0 1-.328-.797c0-.167.059-.358.177-.573a6.348 6.348 0 0 1 .768-1.104l.178-.198.178.198a6.102 6.102 0 0 1 .772 1.104c.118.215.177.406.177.573 0 .313-.11.578-.328.797a1.085 1.085 0 0 1-.797.328ZM7.995 17c-1.108 0-2.05-.39-2.828-1.17C4.389 15.05 4 14.107 4 13c0-.694.156-1.333.469-1.917A3.704 3.704 0 0 1 5.75 9.687V5.25c0-.625.219-1.156.656-1.594A2.17 2.17 0 0 1 8 3a2.17 2.17 0 0 1 1.594.656c.437.438.656.969.656 1.594v4.438c.542.347.969.812 1.281 1.395.313.584.469 1.223.469 1.917 0 1.107-.39 2.05-1.171 2.83-.781.78-1.726 1.17-2.834 1.17ZM5.5 13h5c0-.347-.073-.677-.219-.99a2.411 2.411 0 0 0-.635-.822L8.75 10.5V5.25a.728.728 0 0 0-.214-.534.72.72 0 0 0-.532-.216.734.734 0 0 0-.535.216.72.72 0 0 0-.219.534v5.25l-.875.688a2.72 2.72 0 0 0-.646.854c-.153.32-.229.639-.229.958Z"/></g></svg>