<svg xmlns="http://www.w3.org/2000/svg" fill="currentColor" viewBox="0 0 20 21"><mask id="a" width="20" height="21" x="0" y="0" maskUnits="userSpaceOnUse" style="mask-type:alpha"><path d="M0 .5h20v20H0z"/></mask><g mask="url(#a)"><path d="M11.5 18.5v-4.438L9.917 12.5l-.667 3.333L4 14.771l.292-1.459 3.77.75 1.084-5.479-1.646.709V11.5H6V8.292l3.854-1.625a1.92 1.92 0 0 1 .792-.167c.375 0 .712.087 1.01.26.299.174.545.428.74.76l.291.48c.417.708.89 1.219 1.417 1.531.528.313 1.16.469 1.896.469v1.5a4.853 4.853 0 0 1-2.219-.52 5.062 5.062 0 0 1-1.76-1.48l-.48 2.5L13 13.458V18.5h-1.5ZM12 6c-.486 0-.9-.17-1.24-.51-.34-.34-.51-.754-.51-1.24s.17-.9.51-1.24c.34-.34.754-.51 1.24-.51s.9.17 1.24.51c.34.34.51.754.51 1.24s-.17.9-.51 1.24c-.34.34-.754.51-1.24.51Z"/></g></svg>