<svg xmlns="http://www.w3.org/2000/svg" fill="currentColor" viewBox="0 0 20 21"><mask id="a" width="20" height="21" x="0" y="0" maskUnits="userSpaceOnUse" style="mask-type:alpha"><path d="M0 .5h20v20H0z"/></mask><g mask="url(#a)"><path d="M10 18.5c-1.5 0-2.708-.219-3.625-.656C5.458 17.406 5 16.834 5 16.125c0-.444.194-.84.583-1.188.39-.347.945-.624 1.667-.833l.417 1.438a6.806 6.806 0 0 0-.677.27 2.037 2.037 0 0 0-.49.334c.111.194.542.385 1.292.573a9.089 9.089 0 0 0 4.479 0c.736-.188 1.146-.4 1.229-.636a3.758 3.758 0 0 0-.552-.333 4.116 4.116 0 0 0-.615-.23l.417-1.437c.722.209 1.278.49 1.667.844s.583.754.583 1.198c0 .708-.458 1.281-1.375 1.719-.917.437-2.125.656-3.625.656Zm0-2.5a.655.655 0 0 1-.385-.125.72.72 0 0 1-.26-.354c-.32-.959-.706-1.754-1.157-2.386-.451-.631-.9-1.232-1.344-1.802-.43-.57-.802-1.163-1.114-1.78-.313-.619-.47-1.393-.47-2.324 0-1.347.452-2.472 1.355-3.375S8.653 2.5 10 2.5s2.472.451 3.375 1.354 1.354 2.028 1.354 3.375c0 .93-.153 1.705-.458 2.323a11.126 11.126 0 0 1-1.104 1.781c-.43.57-.875 1.167-1.334 1.792-.458.625-.847 1.417-1.166 2.375a.784.784 0 0 1-.26.365A.65.65 0 0 1 10 16Zm0-7.083a1.63 1.63 0 0 0 1.198-.49 1.63 1.63 0 0 0 .49-1.198c0-.472-.164-.875-.49-1.208A1.612 1.612 0 0 0 10 5.52c-.472 0-.872.167-1.198.5-.326.333-.49.736-.49 1.208s.164.872.49 1.198c.326.326.726.49 1.198.49Z"/></g></svg>