<svg xmlns="http://www.w3.org/2000/svg" fill="currentColor" viewBox="0 0 20 20"><mask id="a" width="20" height="20" x="0" y="0" maskUnits="userSpaceOnUse" style="mask-type:alpha"><path d="M0 0h20v20H0z"/></mask><g mask="url(#a)"><path d="M6.208 18 8.312 7.25A1.438 1.438 0 0 1 9.77 6.042c.279 0 .563.076.855.229.291.153.514.347.666.583l.334.542c.444.694.837 1.187 1.177 1.479.34.292.74.472 1.198.542V8h1v10h-1v-7.104a4.882 4.882 0 0 1-1.656-.677A5.254 5.254 0 0 1 11.02 9l-.48 2.5L12 12.958V18h-1.5v-4.438L8.917 12l-1.188 6h-1.52Zm.334-6.938-1.646-.312a.482.482 0 0 1-.323-.219.503.503 0 0 1-.073-.385l.583-2.938c.084-.416.295-.74.636-.968a1.41 1.41 0 0 1 1.114-.22l.667.147-.958 4.896ZM11 5.5c-.486 0-.9-.17-1.24-.51-.34-.34-.51-.754-.51-1.24s.17-.9.51-1.24C10.1 2.17 10.514 2 11 2s.9.17 1.24.51c.34.34.51.754.51 1.24s-.17.9-.51 1.24c-.34.34-.754.51-1.24.51Z"/></g></svg>