<svg xmlns="http://www.w3.org/2000/svg" fill="currentColor" viewBox="0 0 20 21"><mask id="a" width="20" height="21" x="0" y="0" maskUnits="userSpaceOnUse" style="mask-type:alpha"><path d="M0 .5h20v20H0z"/></mask><g mask="url(#a)"><path d="M6 2.5h8v6.25c0 .236-.052.465-.156.688a1.218 1.218 0 0 1-.448.52L10.5 12.125l.48 1.583H14l-2.48 1.75.96 3.042L10 16.625 7.52 18.5l.96-3.042L6 13.708h3.02l.48-1.583-2.896-2.167a1.383 1.383 0 0 1-.448-.53A1.536 1.536 0 0 1 6 8.75V2.5ZM9.25 4v6.063l.75.583.75-.584V4h-1.5Z"/></g></svg>