<svg xmlns="http://www.w3.org/2000/svg" fill="currentColor" viewBox="0 0 20 20"><mask id="a" width="20" height="20" x="0" y="0" maskUnits="userSpaceOnUse" style="mask-type:alpha"><path d="M0 0h20v20H0z"/></mask><g mask="url(#a)"><path d="M4 18v-5.896l4.208 4.23a16.698 16.698 0 0 0 2-2.209 4.348 4.348 0 0 0 .896-2.688c0-.763-.139-1.5-.417-2.208a5.428 5.428 0 0 0-1.229-1.875L6.812 5H10l3-3 1.25 1.23a5.978 5.978 0 0 1 1.344 1.958 5.91 5.91 0 0 1 .468 2.333 6.08 6.08 0 0 1-.479 2.385 5.748 5.748 0 0 1-1.396 1.99L13 13v5H4Zm4.25-3.75L4 9.98a2.018 2.018 0 0 1-.26-.48 1.471 1.471 0 0 1-.094-.52 1.8 1.8 0 0 1 .094-.574c.062-.187.17-.344.322-.469l1.792-1.791 2.583 2.292c.403.402.698.86.886 1.374.187.514.281 1.056.281 1.626 0 .541-.125 1.055-.375 1.541s-.576.91-.98 1.271Z"/></g></svg>